<?xml version="1.0" standalone="no"?>
<!DOCTYPE svg PUBLIC "-//W3C//DTD SVG 20010904//EN"
 "http://www.w3.org/TR/2001/REC-SVG-20010904/DTD/svg10.dtd">
<svg version="1.0" xmlns="http://www.w3.org/2000/svg"
 width="500.000000pt" height="500.000000pt" viewBox="0 0 500.000000 500.000000"
 preserveAspectRatio="xMidYMid meet">
<metadata>
Created by potrace 1.14, written by Peter Selinger 2001-2017
</metadata>
<g transform="translate(0.000000,500.000000) scale(0.100000,-0.100000)"
fill="#000000" stroke="none">
<path d="M2415 3739 c-99 -56 -185 -103 -191 -106 -7 -2 -9 7 -6 27 l4 30 -66
0 -66 0 -1 -47 c-2 -84 -6 -89 -124 -156 l-110 -63 -3 -52 c-2 -38 1 -52 10
-52 7 0 174 83 370 184 l358 183 127 -112 c236 -205 378 -325 385 -325 13 0 9
103 -5 127 -10 18 -490 463 -499 463 -2 0 -84 -46 -183 -101z"/>
<path d="M3545 3719 c-139 -112 -223 -216 -229 -281 -1 -18 -8 -53 -15 -78 -8
-28 -11 -78 -9 -130 5 -91 29 -154 84 -219 l27 -33 -26 -101 c-14 -56 -39
-141 -57 -188 l-31 -86 -60 -6 c-81 -7 -160 -36 -155 -56 3 -9 7 -29 11 -46
l6 -30 -128 7 c-71 3 -225 6 -344 7 l-216 1 -6 68 c-4 37 -7 192 -7 346 l0
279 -37 -6 c-21 -3 -76 -12 -123 -18 l-85 -12 -1 -156 c-1 -154 -30 -500 -42
-513 -4 -3 -47 -9 -97 -12 -49 -3 -131 -8 -181 -12 l-92 -7 -11 54 c-22 106
-50 321 -61 466 -6 81 -16 166 -22 188 -32 126 -135 319 -167 313 -21 -4 -96
-149 -128 -248 -26 -82 -27 -93 -27 -291 l1 -207 -46 20 c-59 25 -211 29 -256
6 -17 -9 -48 -21 -70 -28 -22 -7 -64 -35 -93 -61 -30 -27 -57 -49 -62 -49 -4
0 -26 -37 -48 -82 -28 -58 -44 -106 -51 -158 -5 -41 -15 -76 -21 -78 -5 -2
-10 -10 -10 -18 0 -19 37 -18 225 6 690 89 1610 105 2560 45 305 -20 729 -53
820 -65 106 -14 121 19 17 40 -71 15 -100 29 -82 40 7 4 9 13 5 20 -6 9 -4 11
5 5 10 -6 12 -3 8 13 -4 14 -2 20 5 15 6 -4 8 2 5 15 -4 14 -2 20 4 16 7 -5 9
2 4 20 -5 20 -4 26 5 20 9 -5 10 -1 7 14 -4 12 -2 22 4 22 6 0 8 9 5 20 -3 11
-1 20 5 20 6 0 7 11 4 26 -4 15 -3 23 2 20 15 -9 20 56 7 86 -6 16 -14 26 -17
23 -3 -3 -3 6 0 21 3 17 1 25 -5 21 -7 -4 -9 10 -6 41 3 30 1 42 -5 34 -5 -8
-7 18 -4 68 l5 80 -48 0 c-27 0 -46 -3 -43 -6 3 -3 -5 -16 -19 -30 -13 -13
-22 -28 -18 -33 3 -5 0 -13 -6 -16 -6 -4 -13 2 -16 14 -3 12 -9 21 -13 21 -12
0 -28 83 -36 193 -6 92 -8 97 -30 97 -12 0 -29 2 -36 5 -10 4 -40 -27 -87 -90
-40 -52 -87 -107 -105 -123 -23 -19 -36 -42 -45 -82 -14 -57 -117 -369 -124
-376 -2 -3 -32 -9 -66 -15 -57 -9 -66 -8 -97 12 -20 12 -33 26 -31 33 33 85
70 212 88 298 22 104 23 108 53 117 17 5 42 9 56 8 19 -2 28 6 42 33 57 117
68 168 69 318 1 114 0 120 -41 231 -55 150 -78 201 -87 201 -4 -1 -30 -19 -58
-41z m31 -371 c4 -7 4 -10 -1 -6 -4 4 -15 2 -24 -5 -14 -11 -14 -10 -2 6 16
20 18 21 27 5z m-249 -105 c-2 -16 -4 -3 -4 27 0 30 2 43 4 28 2 -16 2 -40 0
-55z m206 62 c-3 -9 -8 -14 -10 -11 -3 3 -2 9 2 15 9 16 15 13 8 -4z m-51 -27
c-7 -7 -12 -8 -12 -2 0 6 3 14 7 17 3 4 9 5 12 2 2 -3 -1 -11 -7 -17z m115
-30 c-3 -7 -5 -2 -5 12 0 14 2 19 5 13 2 -7 2 -19 0 -25z m-235 -130 c-7 -7
-12 -8 -12 -2 0 6 3 14 7 17 3 4 9 5 12 2 2 -3 -1 -11 -7 -17z m208 -42 c-26
-43 -29 -44 -22 -11 2 14 8 23 12 20 5 -3 12 4 15 16 4 11 9 18 12 15 3 -3 -5
-21 -17 -40z m-186 8 c9 -24 2 -26 -12 -4 -7 11 -8 20 -3 20 5 0 12 -7 15 -16z
m790 -203 c-29 -69 -124 -203 -124 -175 0 28 22 77 54 119 20 26 44 64 52 84
11 27 17 32 24 21 5 -9 3 -27 -6 -49z m-10 -221 c102 -23 107 -26 99 -45 -3
-10 -20 -15 -52 -15 -48 0 -170 16 -177 23 -2 2 -1 18 2 36 5 23 11 30 23 27
9 -3 56 -14 105 -26z"/>
<path d="M2503 3329 c4 -19 12 -77 18 -129 6 -52 14 -98 18 -101 3 -4 38 -10
77 -14 l71 -7 7 122 c4 67 6 124 4 125 -2 2 -35 9 -73 15 -39 6 -83 13 -99 16
-28 6 -28 5 -23 -27z"/>
<path d="M2736 3274 c-3 -26 -6 -82 -6 -124 l0 -78 33 -5 c17 -3 57 -9 87 -12
l56 -7 -2 123 -1 124 -34 6 c-19 4 -55 10 -80 13 l-46 7 -7 -47z"/>
<path d="M1983 3205 c0 -22 2 -30 4 -17 2 12 2 30 0 40 -3 9 -5 -1 -4 -23z"/>
<path d="M2992 3195 c0 -16 2 -22 5 -12 2 9 2 23 0 30 -3 6 -5 -1 -5 -18z"/>
<path d="M1983 3045 c0 -22 2 -30 4 -17 2 12 2 30 0 40 -3 9 -5 -1 -4 -23z"/>
<path d="M3002 3060 c0 -14 2 -19 5 -12 2 6 2 18 0 25 -3 6 -5 1 -5 -13z"/>
<path d="M2540 2939 c0 -63 -3 -124 -6 -136 -6 -22 -3 -23 42 -23 27 0 66 3
87 6 l37 7 0 118 c0 65 -3 120 -8 123 -4 2 -40 8 -80 11 l-72 8 0 -114z"/>
<path d="M2739 3023 c-2 -14 3 -228 5 -230 3 -4 190 -20 194 -18 3 3 -12 133
-23 201 -5 30 -8 32 -63 38 -31 4 -69 9 -84 12 -16 3 -29 2 -29 -3z"/>
<path d="M3011 2964 c0 -11 3 -14 6 -6 3 7 2 16 -1 19 -3 4 -6 -2 -5 -13z"/>
<path d="M3021 2874 c0 -11 3 -14 6 -6 3 7 2 16 -1 19 -3 4 -6 -2 -5 -13z"/>
<path d="M1972 2830 c0 -19 2 -27 5 -17 2 9 2 25 0 35 -3 9 -5 1 -5 -18z"/>
<path d="M3031 2794 c0 -11 3 -14 6 -6 3 7 2 16 -1 19 -3 4 -6 -2 -5 -13z"/>
<path d="M3041 2724 c0 -11 3 -14 6 -6 3 7 2 16 -1 19 -3 4 -6 -2 -5 -13z"/>
<path d="M1961 2704 c0 -11 3 -14 6 -6 3 7 2 16 -1 19 -3 4 -6 -2 -5 -13z"/>
<path d="M1951 2624 c0 -11 3 -14 6 -6 3 7 2 16 -1 19 -3 4 -6 -2 -5 -13z"/>
<path d="M1931 2504 c0 -11 3 -14 6 -6 3 7 2 16 -1 19 -3 4 -6 -2 -5 -13z"/>
<path d="M1127 2144 c-4 -4 -7 -38 -7 -76 l0 -68 -57 0 c-170 -1 -271 -161
-198 -313 38 -80 135 -119 233 -93 32 8 54 9 64 3 11 -8 25 -3 52 18 31 23 34
30 24 43 -9 11 -14 82 -18 251 l-5 236 -40 3 c-23 2 -44 0 -48 -4z m-23 -240
c13 -5 16 -25 16 -115 l0 -109 -27 -2 c-77 -4 -117 12 -139 54 -17 33 -18 85
-1 118 21 43 103 72 151 54z"/>
<path d="M4387 2144 c-4 -4 -7 -130 -7 -281 l0 -273 50 0 50 0 -2 278 -3 277
-40 3 c-23 2 -44 0 -48 -4z"/>
<path d="M1590 2070 l0 -70 -62 0 c-152 -1 -243 -118 -214 -275 8 -40 55 -99
97 -121 32 -16 151 -19 179 -4 13 7 21 7 25 0 11 -19 41 -10 70 20 25 26 26
31 14 46 -11 13 -15 68 -17 246 l-3 228 -45 0 -44 0 0 -70z m-16 -166 c13 -5
16 -24 16 -109 0 -69 -4 -106 -12 -111 -6 -4 -31 -7 -55 -7 -56 0 -93 27 -112
80 -13 35 -13 46 0 79 21 57 103 91 163 68z"/>
<path d="M1800 1865 l0 -275 50 0 50 0 0 275 0 275 -50 0 -50 0 0 -275z"/>
<path d="M4850 2070 l0 -70 -55 0 c-64 0 -118 -20 -159 -58 -102 -96 -82 -277
38 -339 36 -19 142 -21 173 -5 14 8 24 9 28 2 11 -17 39 -11 69 16 25 22 27
28 17 50 -7 16 -11 104 -11 249 l0 225 -50 0 -50 0 0 -70z m-16 -166 c13 -5
16 -25 16 -115 l0 -109 -27 -2 c-77 -4 -110 7 -133 45 -22 35 -26 97 -9 128
23 44 104 72 153 53z"/>
<path d="M0 2062 l0 -49 68 1 67 1 3 -212 2 -213 50 0 50 0 2 213 3 212 67 -1
68 -1 0 49 0 48 -190 0 -190 0 0 -48z"/>
<path d="M2920 2096 c0 -13 22 -93 132 -473 9 -32 11 -33 62 -33 l53 0 6 48
c7 56 57 275 62 270 6 -6 65 -277 65 -298 0 -18 7 -20 55 -20 30 0 55 3 55 6
0 5 125 462 136 497 5 15 -2 17 -49 17 l-54 0 -39 -170 c-21 -93 -41 -164 -43
-157 -3 6 -21 82 -40 167 l-36 155 -47 3 -46 3 -37 -158 c-21 -87 -40 -162
-43 -167 -3 -6 -20 46 -38 115 -17 68 -37 143 -43 167 l-12 42 -49 0 c-37 0
-50 -4 -50 -14z"/>
<path d="M485 1984 c-86 -47 -134 -139 -120 -227 9 -51 20 -74 54 -110 41 -45
73 -57 151 -57 132 0 201 63 208 191 5 87 -21 148 -81 187 -51 34 -164 42
-212 16z m144 -88 c34 -18 51 -54 51 -112 0 -64 -40 -104 -103 -104 -55 0 -92
27 -108 79 -31 103 66 185 160 137z"/>
<path d="M2105 1984 c-72 -39 -109 -90 -120 -166 -13 -87 31 -170 112 -209 55
-27 169 -32 222 -9 29 11 31 16 31 61 l0 48 -35 -15 c-41 -17 -137 -19 -168
-3 -22 11 -56 48 -57 61 0 3 63 8 140 10 159 3 164 6 154 73 -9 59 -33 103
-72 133 -29 22 -47 27 -106 30 -51 2 -79 -2 -101 -14z m128 -75 c14 -6 29 -21
35 -34 10 -21 8 -23 -20 -29 -17 -3 -57 -6 -89 -6 -69 0 -76 14 -28 54 33 28
64 32 102 15z"/>
<path d="M2467 1993 c-4 -3 -7 -96 -7 -205 l0 -198 50 0 49 0 3 147 3 147 27
15 c22 13 33 13 58 4 l30 -11 0 54 0 54 -43 0 c-24 0 -49 -6 -56 -12 -11 -10
-14 -10 -18 0 -5 13 -84 17 -96 5z"/>
<path d="M4090 1795 l0 -205 48 0 47 0 -3 136 c-3 130 -3 137 19 160 23 25 53
30 79 14 19 -12 28 9 29 63 1 37 1 37 -40 37 -22 0 -50 -5 -62 -11 -16 -9 -22
-9 -25 0 -2 6 -24 11 -48 11 l-44 0 0 -205z"/>
<path d="M2412 1453 c4 -21 33 -25 33 -3 0 8 -8 16 -18 18 -14 3 -18 -1 -15
-15z"/>
<path d="M3420 1456 c0 -8 5 -18 10 -21 13 -8 42 14 34 26 -9 15 -44 10 -44
-5z"/>
<path d="M3952 1453 c4 -21 33 -25 33 -3 0 8 -8 16 -18 18 -14 3 -18 -1 -15
-15z"/>
<path d="M1110 1355 c0 -98 1 -105 20 -105 19 0 20 7 20 105 0 98 -1 105 -20
105 -19 0 -20 -7 -20 -105z"/>
<path d="M1192 1358 c3 -89 5 -103 21 -106 15 -3 17 7 17 102 0 100 -1 106
-20 106 -20 0 -21 -5 -18 -102z"/>
<path d="M1890 1355 c0 -98 1 -105 20 -105 19 0 20 7 20 105 0 98 -1 105 -20
105 -19 0 -20 -7 -20 -105z"/>
<path d="M2070 1435 c0 -20 -5 -25 -24 -25 -38 0 -56 -10 -72 -42 -19 -37 -10
-84 21 -104 23 -15 91 -17 110 -3 6 4 9 47 7 103 -3 87 -5 96 -23 96 -14 0
-19 -7 -19 -25z m0 -105 c0 -36 -2 -40 -25 -40 -32 0 -55 41 -35 65 7 8 23 15
36 15 21 0 24 -5 24 -40z"/>
<path d="M2248 1453 c-16 -4 -18 -18 -18 -104 l0 -99 39 0 c83 0 123 37 101
91 -7 16 -16 29 -19 29 -4 0 -6 13 -3 28 2 17 -2 33 -11 40 -17 14 -65 22 -89
15z m58 -44 c7 -12 -15 -31 -28 -23 -4 3 -8 12 -8 20 0 17 26 19 36 3z m12
-68 c23 -14 10 -46 -21 -49 -24 -3 -27 0 -27 27 0 32 19 41 48 22z"/>
<path d="M546 1431 c-10 -11 -16 -31 -14 -48 3 -24 10 -30 53 -44 58 -18 67
-42 17 -47 -22 -2 -41 3 -53 14 -18 16 -19 16 -19 -13 0 -19 6 -33 16 -37 32
-12 82 -5 108 15 47 37 27 89 -41 104 -38 8 -52 23 -32 36 13 8 29 6 67 -9 10
-3 13 2 10 19 -3 21 -9 24 -49 27 -35 2 -49 -2 -63 -17z"/>
<path d="M1340 1438 c0 -7 7 -35 15 -63 9 -27 20 -67 26 -87 7 -27 15 -38 29
-38 20 0 25 10 36 74 8 43 17 34 28 -27 7 -38 30 -58 46 -41 4 5 19 51 33 102
l25 92 -22 0 c-19 0 -25 -9 -36 -57 l-13 -58 -15 58 c-11 44 -18 57 -33 57
-13 0 -21 -12 -29 -42 -17 -66 -22 -77 -27 -53 -17 77 -25 95 -43 95 -11 0
-20 -6 -20 -12z"/>
<path d="M2750 1350 c0 -93 1 -100 20 -100 19 0 20 7 20 100 0 93 -1 100 -20
100 -19 0 -20 -7 -20 -100z"/>
<path d="M3840 1430 c0 -11 -4 -20 -10 -20 -5 0 -10 -9 -10 -20 0 -11 5 -20
10 -20 6 0 10 -20 10 -44 0 -50 19 -76 55 -76 14 0 25 7 28 20 4 16 0 20 -19
20 -21 0 -24 4 -24 39 0 30 4 40 20 44 11 3 20 12 20 21 0 9 -8 16 -20 16 -13
0 -20 7 -20 20 0 13 -7 20 -20 20 -13 0 -20 -7 -20 -20z"/>
<path d="M2616 1413 c-3 -4 -26 -6 -51 -4 -33 1 -49 -3 -65 -19 -21 -21 -26
-50 -11 -65 9 -9 3 -58 -14 -111 -17 -54 100 -89 145 -44 23 23 26 62 6 79 -8
6 -33 18 -57 25 -34 11 -38 14 -19 15 37 1 70 28 70 56 0 13 5 27 10 30 6 3
10 15 10 26 0 19 -11 25 -24 12z m-41 -58 c0 -13 -8 -21 -23 -23 -26 -4 -42
25 -21 39 22 14 44 6 44 -16z m13 -138 c9 -7 9 -13 1 -23 -15 -18 -40 -18 -64
0 -16 11 -17 17 -7 29 13 15 46 13 70 -6z"/>
<path d="M3366 1413 c-3 -4 -26 -6 -51 -4 -33 1 -49 -3 -65 -19 -21 -21 -26
-50 -11 -65 5 -6 5 -36 -1 -73 -14 -79 2 -102 69 -102 49 0 83 26 83 64 0 29
-16 43 -71 60 -34 11 -38 14 -19 15 37 1 70 28 70 56 0 13 5 27 10 30 6 3 10
15 10 26 0 19 -11 25 -24 12z m-41 -58 c0 -13 -8 -21 -23 -23 -26 -4 -42 25
-21 39 22 14 44 6 44 -16z m23 -139 c9 -9 -20 -36 -39 -36 -27 0 -52 29 -39
45 8 10 20 11 42 4 17 -4 33 -11 36 -13z"/>
<path d="M710 1329 c0 -72 2 -79 20 -79 16 0 19 8 22 57 2 46 7 59 21 61 15 3
17 -5 17 -57 0 -54 2 -61 20 -61 16 0 19 8 22 58 3 49 6 57 23 57 17 0 20 -8
23 -57 3 -50 6 -58 22 -58 18 0 20 7 20 61 0 94 -3 97 -115 97 l-95 -1 0 -78z"/>
<path d="M957 1403 c-4 -3 -7 -13 -7 -21 0 -11 8 -13 28 -9 47 10 57 -8 12
-22 -82 -24 -55 -106 32 -98 21 2 42 8 47 13 13 14 -3 124 -20 135 -16 10 -83
12 -92 2z m73 -98 c0 -9 -9 -15 -25 -15 -24 0 -32 10 -18 23 12 13 43 7 43 -8z"/>
<path d="M1611 1384 c-28 -36 -27 -79 4 -109 50 -51 135 -15 135 58 0 72 -95
107 -139 51z m95 -39 c7 -29 -10 -55 -36 -55 -26 0 -43 26 -36 55 5 20 13 25
36 25 23 0 31 -5 36 -25z"/>
<path d="M1780 1330 c0 -73 2 -80 20 -80 18 0 20 7 20 59 0 54 2 60 22 63 13
2 24 11 26 21 3 14 -4 17 -42 17 l-46 0 0 -80z"/>
<path d="M2410 1330 c0 -73 2 -80 20 -80 18 0 20 7 20 80 0 73 -2 80 -20 80
-18 0 -20 -7 -20 -80z"/>
<path d="M2839 1403 c0 -2 0 -36 -1 -75 0 -65 2 -73 18 -73 16 0 20 10 24 55
4 42 9 56 23 58 15 3 17 -5 17 -57 0 -54 2 -61 20 -61 18 0 20 7 20 55 0 41 4
57 15 62 23 8 28 -1 33 -62 4 -46 8 -55 23 -55 16 0 19 8 19 58 0 90 -11 100
-120 99 -49 0 -90 -2 -91 -4z"/>
<path d="M3087 1403 c-4 -3 -7 -14 -7 -24 0 -16 4 -17 25 -9 14 5 32 7 41 3
12 -4 4 -11 -27 -22 -32 -12 -45 -23 -47 -40 -6 -37 25 -62 72 -60 23 1 46 6
51 10 16 12 3 128 -15 139 -17 11 -83 13 -93 3z m73 -98 c0 -9 -9 -15 -25 -15
-24 0 -32 10 -18 23 12 13 43 7 43 -8z"/>
<path d="M3420 1330 c0 -73 2 -80 20 -80 18 0 20 7 20 80 0 73 -2 80 -20 80
-18 0 -20 -7 -20 -80z"/>
<path d="M3500 1329 c0 -72 2 -79 20 -79 16 0 19 8 22 58 3 50 6 57 26 60 21
3 22 0 22 -57 0 -54 2 -61 20 -61 18 0 20 7 20 69 0 44 -5 72 -13 79 -7 6 -36
11 -65 10 l-52 0 0 -79z"/>
<path d="M3677 1403 c-4 -3 -7 -14 -7 -24 0 -16 4 -17 25 -9 14 5 32 7 41 3
12 -4 4 -11 -27 -22 -35 -13 -45 -22 -47 -42 -5 -39 22 -59 74 -57 25 1 48 6
51 12 12 19 2 111 -14 129 -16 17 -82 24 -96 10z m73 -98 c0 -9 -9 -15 -25
-15 -16 0 -25 6 -25 15 0 9 9 15 25 15 16 0 25 -6 25 -15z"/>
<path d="M3950 1330 c0 -73 2 -80 20 -80 18 0 20 7 20 80 0 73 -2 80 -20 80
-18 0 -20 -7 -20 -80z"/>
<path d="M4041 1384 c-28 -36 -27 -79 4 -109 50 -51 135 -15 135 58 0 72 -95
107 -139 51z m95 -39 c11 -43 -34 -73 -64 -43 -13 13 -16 50 -5 61 3 4 19 7
34 7 22 0 30 -6 35 -25z"/>
<path d="M4210 1329 c0 -72 2 -79 20 -79 16 0 19 8 22 58 3 50 6 57 25 60 20
3 22 -1 25 -55 2 -46 7 -59 21 -61 15 -3 17 5 17 66 0 44 -5 73 -13 80 -7 6
-36 11 -65 10 l-52 0 0 -79z"/>
<path d="M4385 1386 c-8 -13 -13 -30 -10 -38 7 -16 47 -38 70 -38 8 0 15 -5
15 -11 0 -8 -14 -10 -45 -6 -40 6 -45 4 -45 -13 0 -14 9 -21 35 -26 49 -9 84
2 97 31 9 21 8 28 -7 45 -10 11 -28 20 -41 20 -13 0 -25 4 -29 9 -9 16 12 22
40 11 20 -8 27 -7 32 6 8 21 -14 34 -59 34 -28 0 -41 -6 -53 -24z"/>
<path d="M93 1363 c42 -2 112 -2 155 0 42 1 7 3 -78 3 -85 0 -120 -2 -77 -3z"/>
<path d="M4773 1363 c42 -2 112 -2 155 0 42 1 7 3 -78 3 -85 0 -120 -2 -77 -3z"/>
</g>
</svg>
